<svg width="240" height="240" viewBox="0 0 240 240" fill="none" xmlns="http://www.w3.org/2000/svg">
<path d="M239.999 120C239.999 186.274 186.274 239.999 120 239.999C53.7257 239.999 0 186.274 0 120C0 53.7257 53.7257 0 120 0C186.274 0 239.999 53.7257 239.999 120Z" fill="#9C2B42"/>
<path d="M101.309 155.944L102.145 140.326C92.163 142.236 82.3396 139.569 77.8423 132.859C73.5036 126.005 74.2603 117.4 75.9396 107.8C76.4729 104.672 76.7036 100.333 76.7757 96.4486C77.1576 87.6054 77.6117 75.4973 82.2603 68.6361C89.9576 57.0613 102.376 57.364 120.732 57.364C130.109 57.364 134.448 59.9514 140.927 66.2793C147.248 72.5207 155.32 78.0126 155.478 86.4667C155.853 104.521 150.981 154.344 150.981 156.78C150.981 156.78 160.884 157.162 162.786 157.472L152.199 211.713L103.363 223.828L86.3756 157.393C91.4062 156.708 101.309 155.944 101.309 155.944Z" fill="#EAA58B"/>
<path opacity="0.2" d="M114.11 136.37C108.698 138.957 103.977 140.024 102.608 140.255C102.377 140.327 102.146 140.478 102.146 140.788L101.692 149.321C101.692 149.854 102.298 150.078 102.608 149.696L114.716 137.206C115.177 136.745 114.644 136.06 114.11 136.37Z" fill="#282625"/>
<path fill-rule="evenodd" clip-rule="evenodd" d="M114.577 135.618C114.992 136.298 114.777 137.185 114.097 137.599C110.816 139.599 106.059 141.339 102.364 141.902C101.577 142.021 100.842 141.481 100.722 140.693C100.602 139.906 101.143 139.171 101.93 139.051C105.24 138.547 109.636 136.943 112.596 135.138C113.276 134.723 114.163 134.938 114.577 135.618Z" fill="#282625"/>
<path fill-rule="evenodd" clip-rule="evenodd" d="M133.744 109.662C134.187 110.323 134.01 111.218 133.348 111.662L126.184 116.462C125.523 116.905 124.628 116.728 124.185 116.066C123.741 115.405 123.918 114.51 124.58 114.067L131.744 109.267C132.405 108.823 133.3 109 133.744 109.662Z" fill="#282625"/>
<path fill-rule="evenodd" clip-rule="evenodd" d="M98.9256 112.955C99.6533 113.278 99.9816 114.13 99.6588 114.857C98.1586 118.239 94.353 120.161 90.6626 119.419C89.8821 119.263 89.3766 118.503 89.5334 117.722C89.6902 116.942 90.4501 116.436 91.2306 116.593C93.6375 117.077 96.0877 115.798 97.0236 113.688C97.3463 112.961 98.1979 112.632 98.9256 112.955Z" fill="#282625"/>
<path fill-rule="evenodd" clip-rule="evenodd" d="M91.1237 101.522C91.8571 101.832 92.2004 102.678 91.8907 103.411C91.3311 104.736 91.0676 105.517 91.0847 106.058C91.091 106.259 91.1384 106.377 91.2162 106.481C91.3089 106.604 91.5194 106.802 92.0037 107.023C92.7282 107.353 93.0479 108.208 92.7178 108.932C92.3878 109.657 91.533 109.976 90.8085 109.646C90.0352 109.294 89.379 108.834 88.9122 108.213C88.4306 107.573 88.2257 106.861 88.2032 106.149C88.1626 104.86 88.7351 103.472 89.235 102.289C89.5448 101.556 90.3904 101.212 91.1237 101.522Z" fill="#282625"/>
<path d="M102.226 102.391C103.401 102.391 104.359 101.439 104.359 100.257C104.359 99.0754 103.401 98.124 102.226 98.124C101.044 98.124 100.093 99.0754 100.093 100.257C100.093 101.439 101.044 102.391 102.226 102.391Z" fill="#30242A"/>
<path d="M83.6373 100.938C84.8049 100.938 85.7706 99.979 85.7706 98.8042C85.7706 97.6222 84.8049 96.6709 83.6373 96.6709C82.4553 96.6709 81.5039 97.6222 81.5039 98.8042C81.5039 99.979 82.4553 100.938 83.6373 100.938Z" fill="#30242A"/>
<path d="M162.889 50.5889C172.323 41.1691 172.323 25.8682 162.889 16.434C153.455 7.01419 138.169 7.01419 128.734 16.434C119.307 25.8682 119.307 41.1691 128.734 50.5889C138.169 60.0231 153.455 60.0231 162.889 50.5889Z" fill="#30242A"/>
<path fill-rule="evenodd" clip-rule="evenodd" d="M214.234 194.298C203.916 181.053 193.536 170.564 186.864 166.003C180.155 160.821 169.034 157.311 161.567 157.311L110.829 214.529L87.1386 157.239C81.1206 158.003 74.0359 159.221 68.5512 161.203C54.1877 167.329 35.6818 180.979 23.1826 190.912C45.0204 220.676 80.2522 239.998 119.997 239.998C158.214 239.998 192.258 222.132 214.234 194.298Z" fill="#E3000F"/>
<path fill-rule="evenodd" clip-rule="evenodd" d="M110.932 213.333C111.794 213.346 112.466 213.624 112.432 213.952L109.791 239.427C109.757 239.756 109.03 240.012 108.168 239.999C107.306 239.986 106.634 239.709 106.668 239.38L109.309 213.905C109.343 213.576 110.07 213.32 110.932 213.333Z" fill="#3E1E23"/>
<path fill-rule="evenodd" clip-rule="evenodd" d="M65.6495 219.45C66.4375 219.665 67.1189 220.082 67.1714 220.382L68.432 227.57C68.4845 227.869 67.8882 227.938 67.1002 227.723C66.3122 227.508 65.6308 227.091 65.5783 226.792L64.3177 219.603C64.2652 219.304 64.8614 219.236 65.6495 219.45Z" fill="#3E1E23"/>
<path fill-rule="evenodd" clip-rule="evenodd" d="M165.412 218.537C165.808 218.259 166.36 218.348 166.644 218.734L172.806 227.103C173.09 227.489 173 228.026 172.604 228.304C172.208 228.581 171.656 228.492 171.372 228.106L165.21 219.737C164.925 219.351 165.016 218.814 165.412 218.537Z" fill="#3E1E23"/>
<path d="M200.735 169.049C200.887 126.923 165.456 123.954 159.518 96.6746C155.633 75.8026 152.584 66.4332 146.264 60.2639C139.784 53.9359 131.784 50.2819 122.415 49.8999C99.0275 48.9125 84.6276 56.754 78.2276 69.5539C74.797 76.4152 73.507 86.1665 73.6583 88.9845L117.918 89.8205L120.815 101.784C120.815 101.784 139.179 91.3413 144.736 102.008C152.584 117.475 127.669 129.208 127.669 129.208L132.397 168.977L200.735 169.049Z" fill="#30242A"/>
<path fill-rule="evenodd" clip-rule="evenodd" d="M127.174 50.2858C127.339 49.5069 128.104 49.0092 128.883 49.1741C134.524 50.3685 139.598 52.8257 144.108 56.3862C144.733 56.8795 144.84 57.7859 144.346 58.4107C143.853 59.0356 142.947 59.1423 142.322 58.649C138.14 55.3483 133.47 53.092 128.286 51.9945C127.507 51.8296 127.009 51.0646 127.174 50.2858Z" fill="#191416"/>
</svg>
